<mxfile host="app.diagrams.net" agent="Mozilla/5.0 (X11; Linux x86_64; rv:141.0) Gecko/20100101 Firefox/141.0" version="28.0.7">
  <diagram name="Page-1" id="gX1iZKvfPYksxvwvQngH">
    <mxGraphModel dx="554" dy="478" grid="1" gridSize="10" guides="1" tooltips="1" connect="1" arrows="1" fold="1" page="1" pageScale="1" pageWidth="850" pageHeight="1100" math="0" shadow="0">
      <root>
        <mxCell id="0" />
        <mxCell id="1" parent="0" />
        <mxCell id="KS05k8XOO2Dn_xqCU69P-1" value="" style="ellipse;whiteSpace=wrap;html=1;aspect=fixed;strokeColor=light-dark(#000000,#994C00);" vertex="1" parent="1">
          <mxGeometry x="40" y="240" width="200" height="200" as="geometry" />
        </mxCell>
        <mxCell id="KS05k8XOO2Dn_xqCU69P-2" value="" style="ellipse;whiteSpace=wrap;html=1;aspect=fixed;strokeColor=light-dark(#000000,#994C00);" vertex="1" parent="1">
          <mxGeometry x="50" y="250" width="180" height="180" as="geometry" />
        </mxCell>
        <mxCell id="KS05k8XOO2Dn_xqCU69P-3" value="" style="ellipse;whiteSpace=wrap;html=1;aspect=fixed;strokeColor=light-dark(#000000,#994C00);" vertex="1" parent="1">
          <mxGeometry x="57.5" y="257.5" width="165" height="165" as="geometry" />
        </mxCell>
        <mxCell id="KS05k8XOO2Dn_xqCU69P-4" value="" style="ellipse;whiteSpace=wrap;html=1;aspect=fixed;strokeColor=light-dark(#000000,#994C00);" vertex="1" parent="1">
          <mxGeometry x="65" y="265" width="150" height="150" as="geometry" />
        </mxCell>
        <mxCell id="KS05k8XOO2Dn_xqCU69P-5" value="" style="ellipse;whiteSpace=wrap;html=1;aspect=fixed;strokeColor=light-dark(#000000,#994C00);" vertex="1" parent="1">
          <mxGeometry x="107.5" y="307.5" width="65" height="65" as="geometry" />
        </mxCell>
        <mxCell id="KS05k8XOO2Dn_xqCU69P-9" value="" style="ellipse;whiteSpace=wrap;html=1;aspect=fixed;strokeColor=light-dark(#000000,#994C00);" vertex="1" parent="1">
          <mxGeometry x="75" y="275" width="130" height="130" as="geometry" />
        </mxCell>
        <mxCell id="KS05k8XOO2Dn_xqCU69P-10" value="" style="ellipse;whiteSpace=wrap;html=1;aspect=fixed;strokeColor=light-dark(#000000,#994C00);" vertex="1" parent="1">
          <mxGeometry x="85" y="285" width="110" height="110" as="geometry" />
        </mxCell>
        <mxCell id="KS05k8XOO2Dn_xqCU69P-11" value="" style="ellipse;whiteSpace=wrap;html=1;aspect=fixed;strokeColor=light-dark(#000000,#994C00);" vertex="1" parent="1">
          <mxGeometry x="95" y="295" width="90" height="90" as="geometry" />
        </mxCell>
        <mxCell id="KS05k8XOO2Dn_xqCU69P-6" value="" style="endArrow=none;html=1;rounded=0;dashed=1;dashPattern=8 8;" edge="1" parent="1" source="KS05k8XOO2Dn_xqCU69P-11">
          <mxGeometry width="50" height="50" relative="1" as="geometry">
            <mxPoint x="139.85" y="475" as="sourcePoint" />
            <mxPoint x="140" y="340" as="targetPoint" />
          </mxGeometry>
        </mxCell>
        <mxCell id="KS05k8XOO2Dn_xqCU69P-13" value="" style="ellipse;whiteSpace=wrap;html=1;aspect=fixed;strokeColor=light-dark(#000000,#994C00);" vertex="1" parent="1">
          <mxGeometry x="105" y="305" width="70" height="70" as="geometry" />
        </mxCell>
        <mxCell id="KS05k8XOO2Dn_xqCU69P-14" value="" style="ellipse;whiteSpace=wrap;html=1;aspect=fixed;strokeColor=light-dark(#000000,#994C00);" vertex="1" parent="1">
          <mxGeometry x="117.5" y="317.5" width="45" height="45" as="geometry" />
        </mxCell>
        <mxCell id="KS05k8XOO2Dn_xqCU69P-8" value="" style="endArrow=none;html=1;rounded=0;dashed=1;dashPattern=8 8;" edge="1" parent="1">
          <mxGeometry width="50" height="50" relative="1" as="geometry">
            <mxPoint x="140" y="340" as="sourcePoint" />
            <mxPoint x="240" y="450" as="targetPoint" />
          </mxGeometry>
        </mxCell>
        <mxCell id="KS05k8XOO2Dn_xqCU69P-12" value="" style="endArrow=none;html=1;rounded=0;dashed=1;dashPattern=8 8;" edge="1" parent="1">
          <mxGeometry width="50" height="50" relative="1" as="geometry">
            <mxPoint x="139.85" y="475" as="sourcePoint" />
            <mxPoint x="140" y="340" as="targetPoint" />
          </mxGeometry>
        </mxCell>
        <mxCell id="KS05k8XOO2Dn_xqCU69P-15" value="" style="endArrow=none;html=1;rounded=0;dashed=1;dashPattern=8 8;" edge="1" parent="1" target="KS05k8XOO2Dn_xqCU69P-14">
          <mxGeometry width="50" height="50" relative="1" as="geometry">
            <mxPoint x="140" y="339.85" as="sourcePoint" />
            <mxPoint x="240" y="450" as="targetPoint" />
          </mxGeometry>
        </mxCell>
      </root>
    </mxGraphModel>
  </diagram>
</mxfile>
